{"glyphs":{":":{"x_min":0,"x_max":299,"ha":299,"o":"m 149 -14 q 129 -14 115 0 q 100 15 100 35 q 100 55 115 70 q 129 85 149 85 q 169 85 184 70 q 199 56 199 36 q 199 15 185 0 q 170 -14 149 -14 z m 149 256 q 129 256 115 270 q 100 285 100 305 q 100 325 115 340 q 129 355 149 355 q 169 355 184 340 q 199 326 199 306 q 199 284 185 270 q 171 256 149 256 z"},"$":{"x_min":0,"x_max":551,"ha":551,"o":"m 230 645 l 227 406 q 247 401 272 396 q 297 390 326 385 l 326 634 q 307 640 287 642 q 266 645 242 645 z m 201 413 l 202 643 q 145 627 116 597 q 88 566 88 521 q 88 482 115 457 q 142 431 201 413 z m 351 298 l 347 36 q 410 51 445 88 q 481 125 481 176 q 481 222 448 253 q 416 283 351 298 z m 222 44 q 241 39 259 36 q 277 33 295 33 q 300 33 306 33 q 312 34 325 35 l 326 305 l 312 308 q 251 319 225 324 z m 200 -3 q 119 9 72 64 q 25 119 25 203 q 25 215 29 222 q 32 228 39 228 q 45 228 54 204 q 63 180 74 163 q 97 125 130 96 q 163 67 200 52 l 201 330 q 123 351 86 389 q 49 428 49 488 q 49 553 89 602 q 130 651 202 673 q 201 733 199 769 q 197 805 194 825 l 241 845 q 236 803 233 769 q 231 734 231 710 l 230 681 q 248 684 264 685 q 281 686 296 686 q 301 686 311 686 q 321 685 327 685 l 327 707 q 327 746 325 775 q 322 804 317 825 l 368 845 q 363 804 360 772 q 357 741 357 727 l 356 680 q 431 662 459 638 q 487 614 489 569 l 492 525 l 492 518 q 492 506 490 500 q 487 495 481 495 q 472 495 459 519 q 450 537 443 548 q 422 579 400 597 q 378 616 355 625 l 352 378 q 438 362 479 322 q 520 281 520 211 q 520 138 474 83 q 429 28 347 3 l 345 -132 q 345 -147 343 -150 q 341 -154 335 -154 q 330 -154 328 -148 q 325 -143 325 -132 l 325 -3 q 311 -5 296 -6 q 281 -7 265 -7 q 256 -7 247 -7 q 237 -6 221 -5 l 219 -132 l 219 -139 q 219 -147 217 -150 q 215 -152 210 -152 q 206 -152 203 -146 q 200 -141 200 -132 z"},"?":{"x_min":0,"x_max":481,"ha":481,"o":"m 233 191 q 212 191 190 225 q 168 259 168 300 q 168 332 186 365 q 205 398 245 439 q 256 451 278 471 q 368 559 368 603 q 368 640 340 663 q 312 687 269 687 q 205 687 156 647 q 108 608 108 555 q 108 531 118 507 q 120 500 120 499 q 120 495 118 493 q 116 491 112 491 q 100 491 80 527 q 61 563 61 598 q 61 652 112 687 q 163 722 241 722 q 312 722 356 680 q 400 638 400 570 q 400 492 297 389 l 295 387 l 292 384 q 213 305 213 264 q 213 245 229 225 q 244 204 244 200 q 244 196 241 194 q 237 191 233 191 z m 219 -14 q 197 -14 181 1 q 166 17 166 39 q 166 60 182 75 q 198 91 219 91 q 241 91 256 75 q 272 60 272 39 q 272 16 257 1 q 242 -14 219 -14 z"},"<":{"x_min":0,"x_max":833,"ha":833,"o":"m 704 554 l 704 501 l 205 298 l 704 96 l 704 43 l 129 278 l 129 318 z"},"'":{"x_min":0,"x_max":169,"ha":169,"o":"m 92 424 l 77 424 l 47 646 q 47 647 47 648 q 45 660 45 666 q 45 689 55 701 q 65 714 84 714 q 103 714 113 702 q 123 690 123 667 q 123 659 123 655 q 123 650 122 646 z"},"=":{"x_min":0,"x_max":833,"ha":833,"o":"m 124 231 l 709 231 l 709 183 l 124 183 z m 124 413 l 709 413 l 709 365 l 124 365 z"},"a":{"x_min":0,"x_max":433,"ha":433,"o":"m 269 85 l 269 173 q 244 182 223 186 q 203 190 186 190 q 145 190 123 169 q 102 148 102 108 q 102 70 118 51 q 134 32 166 32 q 193 32 219 45 q 245 59 269 85 z m 268 56 q 229 22 195 5 q 160 -13 132 -13 q 88 -13 60 16 q 32 45 32 91 q 32 146 70 180 q 107 215 168 215 q 189 215 214 210 q 239 205 268 194 l 268 231 q 268 286 254 302 q 239 317 198 317 q 155 317 113 298 q 70 280 70 280 q 65 280 63 281 q 60 283 60 286 q 60 309 115 336 q 171 364 228 364 q 259 364 283 354 q 307 345 319 327 q 327 316 330 296 q 333 276 333 217 l 333 91 q 333 57 337 50 q 341 42 353 42 q 370 42 389 60 q 407 77 411 77 q 414 77 416 75 q 418 73 418 70 q 418 50 375 18 q 332 -14 299 -14 q 283 -14 275 -6 q 268 1 268 19 z"},"L":{"x_min":0,"x_max":623,"ha":623,"o":"m 148 483 q 148 549 146 594 q 145 638 141 675 q 85 681 65 687 q 45 692 45 701 q 45 706 49 708 q 53 711 61 711 q 63 711 74 710 q 130 704 185 704 q 240 704 296 710 q 307 711 309 711 q 317 711 321 708 q 325 706 325 701 q 325 692 305 687 q 285 681 229 675 q 225 643 224 604 q 222 565 222 483 l 222 221 q 222 156 224 112 q 226 67 229 28 q 256 27 270 26 q 284 26 295 26 q 374 26 443 37 q 513 48 569 70 l 578 128 q 581 147 584 153 q 586 158 592 158 q 596 158 598 155 q 600 151 600 147 q 600 146 599 136 q 595 93 595 52 q 595 13 601 -25 q 602 -33 602 -34 q 602 -42 600 -45 q 599 -48 595 -48 q 592 -48 589 -45 q 586 -42 584 -34 l 576 -16 q 498 -8 417 -4 q 336 0 253 0 l 174 0 q 138 0 100 -3 q 62 -7 61 -7 q 52 -7 49 -5 q 45 -3 45 2 q 45 11 65 16 q 85 22 141 28 q 145 65 146 109 q 148 154 148 221 z"},"3":{"x_min":0,"x_max":551,"ha":551,"o":"m 333 372 q 370 404 389 442 q 408 479 408 519 q 408 576 370 610 q 331 644 266 644 q 226 644 188 630 q 149 617 119 592 q 104 580 86 560 q 67 540 61 540 q 57 540 54 543 q 52 545 52 551 q 52 559 63 574 q 74 590 93 607 q 141 650 194 672 q 246 694 303 694 q 379 694 423 655 q 467 617 467 551 q 467 503 442 459 q 417 416 361 369 q 428 354 467 307 q 505 260 505 193 q 505 100 438 41 q 372 -19 267 -19 q 212 -19 159 -2 q 105 15 59 47 q 36 63 25 77 q 13 90 13 101 q 13 106 16 109 q 18 112 23 112 q 29 112 45 99 q 57 89 64 84 q 110 51 159 34 q 208 17 256 17 q 332 17 380 61 q 429 105 429 172 q 429 244 380 284 q 332 324 245 324 q 214 324 180 316 q 146 307 143 307 q 137 307 133 310 q 129 312 129 316 q 129 336 188 354 q 247 371 333 372 z"},";":{"x_min":0,"x_max":299,"ha":299,"o":"m 175 100 q 177 101 178 101 q 180 101 183 101 q 191 101 195 97 q 199 92 199 83 q 199 66 181 20 q 162 -26 130 -88 l 106 -135 l 105 -137 q 85 -176 74 -176 q 70 -176 67 -174 q 65 -171 65 -167 q 65 -161 74 -135 q 107 -39 107 39 q 107 47 106 58 q 105 69 105 72 q 105 82 111 87 q 117 91 141 95 z m 154 256 q 134 256 119 270 q 105 285 105 305 q 105 325 120 340 q 134 355 154 355 q 174 355 188 340 q 203 326 203 306 q 203 284 189 270 q 176 256 154 256 z"},"J":{"x_min":0,"x_max":340,"ha":340,"o":"m 214 238 q 214 169 213 127 q 211 84 209 56 q 205 11 184 -33 q 163 -77 128 -115 q 98 -147 33 -191 q 26 -196 23 -198 q 1 -212 -11 -219 q -22 -225 -28 -225 q -31 -225 -33 -222 q -35 -220 -35 -217 q -35 -208 -7 -187 q 21 -165 42 -145 q 68 -120 87 -93 q 105 -66 117 -38 q 129 -8 135 33 q 140 74 140 165 l 140 206 l 140 483 q 140 549 138 594 q 137 638 133 675 q 77 681 57 687 q 37 692 37 701 q 37 706 41 708 q 45 711 53 711 q 56 711 98 707 q 139 702 177 702 q 215 702 256 707 q 298 711 301 711 q 309 711 313 708 q 317 706 317 701 q 317 692 297 687 q 277 681 221 675 q 217 636 216 591 q 214 547 214 483 z"},"V":{"x_min":0,"x_max":718,"ha":718,"o":"m 64 675 l 62 675 q -10 690 -10 701 q -10 706 -6 708 q -2 711 6 711 q 15 711 50 707 q 85 702 111 702 q 135 702 168 707 q 202 711 212 711 q 220 711 224 708 q 228 706 228 701 q 228 694 214 689 q 199 684 146 675 l 376 77 l 464 286 q 500 372 532 470 q 563 568 588 675 q 535 684 520 689 q 506 694 506 701 q 506 706 510 708 q 514 711 522 711 q 525 711 556 708 q 587 705 615 705 q 643 705 674 708 q 705 711 708 711 q 716 711 720 708 q 724 706 724 701 q 724 691 668 678 q 659 676 654 675 q 634 631 611 579 q 588 526 544 420 l 369 3 q 365 -6 360 -13 q 355 -19 353 -19 q 347 -19 341 -6 q 340 -5 340 -4 z"},"\"":{"x_min":0,"x_max":328,"ha":328,"o":"m 251 424 l 236 424 l 206 646 q 205 655 204 659 q 204 663 204 667 q 204 689 214 702 q 225 714 244 714 q 263 714 273 701 q 283 689 283 666 q 283 660 281 648 q 281 647 281 646 z m 92 424 l 77 424 l 47 646 q 47 647 47 648 q 45 660 45 666 q 45 689 55 701 q 65 714 84 714 q 103 714 114 702 q 124 689 124 667 q 124 662 123 649 q 122 647 122 646 z"},"7":{"x_min":0,"x_max":551,"ha":551,"o":"m 284 28 q 360 23 383 18 q 406 13 406 3 q 406 -2 403 -5 q 399 -7 392 -7 q 389 -7 377 -5 q 311 2 244 2 q 170 2 100 -6 q 89 -7 87 -7 q 79 -7 75 -4 q 72 -2 72 3 q 72 13 98 19 q 125 25 188 30 q 233 194 308 349 q 383 503 488 648 q 341 646 248 635 q 154 625 94 605 q 90 561 82 533 q 75 506 67 506 q 64 506 62 508 q 61 510 61 514 q 61 516 62 524 q 67 572 67 622 q 67 674 64 727 q 64 737 64 739 q 64 747 65 750 q 67 752 71 752 q 78 752 82 739 q 87 725 92 688 q 153 682 213 679 q 273 676 332 676 l 510 676 l 516 683 q 520 688 523 690 q 526 692 529 692 q 532 692 535 690 q 537 688 537 685 q 537 680 498 620 q 459 561 428 499 q 361 368 324 246 q 287 124 284 28 z"},"S":{"x_min":0,"x_max":655,"ha":655,"o":"m 123 25 l 106 -25 q 102 -36 99 -39 q 96 -42 92 -42 q 88 -42 85 -40 q 83 -37 83 -33 q 83 -29 86 -12 q 99 67 99 142 q 99 171 97 205 q 94 239 94 243 q 94 253 96 257 q 98 261 103 261 q 116 261 132 138 q 134 122 135 113 q 189 66 242 43 q 295 20 347 20 q 426 20 481 68 q 536 116 536 183 q 536 208 527 227 q 519 246 501 258 q 460 286 336 303 q 306 308 290 310 q 194 324 147 369 q 100 413 100 490 q 100 593 168 657 q 236 722 344 722 q 386 722 431 712 q 475 701 520 681 l 537 731 l 537 731 q 543 748 552 748 q 556 748 557 746 q 559 744 559 739 q 559 734 555 714 q 539 633 539 559 q 539 546 540 529 q 541 512 541 508 q 541 500 539 495 q 536 491 531 491 q 516 491 509 598 l 509 602 q 467 642 418 663 q 369 683 315 683 q 237 683 182 637 q 128 591 128 527 q 128 475 163 449 q 198 424 330 401 q 342 399 366 395 q 452 381 492 363 q 527 347 548 310 q 568 273 568 225 q 568 120 493 51 q 418 -18 304 -18 q 261 -18 216 -7 q 170 3 123 25 z"},"}":{"x_min":0,"x_max":358,"ha":358,"o":"m 178 471 l 178 575 q 178 626 167 650 q 155 674 127 683 q 115 687 97 687 q 78 688 78 695 q 78 701 86 704 q 93 706 114 706 q 181 706 212 666 q 242 625 242 535 l 242 469 q 242 335 262 300 q 282 265 336 262 l 336 240 q 282 237 262 202 q 242 167 242 34 l 242 -33 q 242 -123 212 -164 q 181 -204 114 -204 q 95 -204 86 -201 q 78 -198 78 -192 q 78 -185 97 -184 q 115 -184 127 -180 q 155 -171 167 -147 q 178 -124 178 -73 l 178 31 q 178 144 203 187 q 228 230 293 251 q 228 272 203 315 q 178 358 178 471 z"},"Z":{"x_min":0,"x_max":628,"ha":628,"o":"m 125 0 l 97 0 q 72 0 65 4 q 57 8 57 18 q 57 21 59 27 q 61 32 65 38 l 459 675 q 400 678 363 679 q 326 680 300 680 q 241 680 185 672 q 129 665 83 650 l 75 585 q 72 567 69 561 q 66 554 60 554 q 57 554 54 557 q 52 560 52 565 q 52 567 53 575 q 57 618 57 660 q 57 691 52 724 q 48 757 48 759 q 48 764 51 767 q 53 770 56 770 q 60 770 62 767 q 64 764 67 757 l 77 723 q 151 713 221 709 q 291 704 356 704 l 502 704 q 533 704 541 700 q 549 696 549 684 q 549 680 542 668 l 541 666 l 149 23 l 165 23 q 298 23 393 35 q 487 46 542 70 l 550 128 q 553 146 556 152 q 559 158 565 158 q 568 158 570 155 q 573 152 573 147 q 573 145 572 137 q 568 93 568 52 q 568 13 574 -25 q 575 -33 575 -34 q 575 -42 573 -45 q 572 -48 568 -48 q 564 -48 561 -44 q 558 -41 556 -34 l 549 -16 q 471 -8 390 -4 q 309 0 225 0 z"},"x":{"x_min":0,"x_max":442,"ha":442,"o":"m 386 25 l 392 23 q 442 11 442 2 q 442 -3 438 -5 q 435 -7 426 -7 q 423 -7 395 -4 q 367 -2 342 -2 q 317 -2 289 -4 q 261 -7 258 -7 q 249 -7 246 -5 q 242 -3 242 2 q 242 8 253 13 q 265 18 296 25 q 278 54 264 76 q 250 98 241 110 l 207 159 q 168 111 148 80 q 128 48 122 25 q 130 22 143 18 q 170 9 170 2 q 170 -3 167 -5 q 163 -7 154 -7 q 150 -7 128 -4 q 105 -2 87 -2 q 69 -2 46 -4 q 24 -7 20 -7 q 11 -7 8 -5 q 4 -3 4 2 q 4 8 15 13 q 25 18 61 25 q 85 48 116 82 q 147 116 196 174 l 139 251 q 127 266 110 285 q 93 304 72 324 q 37 330 23 335 q 9 340 9 347 q 9 352 12 354 q 16 356 25 356 q 28 356 56 354 q 84 351 109 351 q 134 351 162 354 q 190 356 193 356 q 202 356 205 354 q 209 352 209 347 q 209 341 197 336 q 186 331 155 324 l 236 215 q 272 262 289 286 q 306 310 312 324 q 282 331 271 336 q 259 341 259 347 q 259 352 262 354 q 266 356 275 356 q 279 356 302 354 q 324 352 342 352 q 360 352 383 354 q 405 356 409 356 q 418 356 421 354 q 425 352 425 347 q 425 341 413 336 q 400 331 368 324 q 345 304 317 274 q 288 244 247 198 l 303 124 q 317 105 339 80 q 360 54 386 25 z"},")":{"x_min":0,"x_max":301,"ha":301,"o":"m 148 251 q 148 368 129 462 q 111 557 73 633 q 62 656 44 683 q 27 711 27 717 q 27 719 29 721 q 31 722 34 722 q 40 722 60 698 q 81 675 108 635 q 165 553 193 457 q 221 361 221 251 q 221 140 193 45 q 165 -51 108 -132 q 81 -172 60 -196 q 40 -219 34 -219 q 31 -219 29 -218 q 27 -216 27 -214 q 27 -207 41 -186 q 49 -173 54 -165 q 103 -79 125 21 q 148 122 148 251 z"},"&":{"x_min":0,"x_max":692,"ha":692,"o":"m 516 337 q 536 298 545 267 q 554 237 554 209 q 554 174 542 141 q 531 108 508 78 q 473 32 418 7 q 362 -19 298 -19 q 252 -19 209 -3 q 166 14 131 44 q 93 78 72 124 q 52 169 52 222 q 52 305 100 365 q 148 426 228 443 q 185 471 164 504 q 142 537 142 575 q 142 637 189 680 q 235 723 302 723 q 353 723 398 693 q 443 663 443 639 q 443 635 441 632 q 439 630 436 630 q 434 630 402 655 q 370 680 332 680 q 282 680 248 646 q 214 612 214 563 q 214 536 224 508 q 235 479 256 447 q 306 446 343 432 q 379 418 379 403 q 379 399 375 396 q 372 394 365 394 q 360 394 338 398 q 315 403 299 403 q 233 403 186 350 q 138 298 138 223 q 138 134 195 77 q 251 20 339 20 q 379 20 416 37 q 453 53 481 85 q 506 113 519 145 q 532 177 532 210 q 532 241 523 270 q 514 299 496 327 l 495 326 q 340 243 327 181 q 325 173 324 159 q 323 142 316 142 q 312 142 309 146 q 307 150 305 161 l 303 181 q 303 182 303 184 q 301 199 301 205 q 301 254 334 292 q 368 329 490 395 q 502 402 526 414 q 659 484 659 536 q 659 552 653 561 q 646 571 635 571 q 627 571 624 565 q 620 559 618 545 q 615 525 606 516 q 597 506 581 506 q 563 506 553 516 q 543 527 543 545 q 543 569 562 587 q 580 605 606 605 q 641 605 662 580 q 684 555 684 514 q 684 462 655 427 q 625 393 516 337 z"},"_":{"x_min":0,"x_max":500,"ha":500,"o":"m 0 -187 l 500 -187 l 500 -236 l 0 -236 z"},"v":{"x_min":0,"x_max":412,"ha":412,"o":"m 330 324 q 300 331 288 336 q 277 341 277 347 q 277 352 281 354 q 284 356 293 356 q 297 356 319 354 q 341 352 359 352 q 377 352 400 354 q 423 356 427 356 q 436 356 439 354 q 442 352 442 347 q 442 341 430 336 q 417 331 386 324 q 346 244 331 213 q 315 182 305 160 l 228 -2 q 227 -5 224 -10 q 215 -28 208 -28 q 199 -28 189 -4 l 188 -2 l 46 324 q 11 330 -2 335 q -16 340 -16 347 q -16 352 -12 354 q -9 356 0 356 q 3 356 29 354 q 56 351 79 351 q 103 351 129 354 q 155 356 158 356 q 167 356 170 354 q 173 352 173 347 q 173 340 160 335 q 147 330 119 324 l 233 52 l 294 207 q 305 235 314 264 q 323 293 330 324 z"},"O":{"x_min":0,"x_max":831,"ha":831,"o":"m 463 23 q 505 23 545 35 q 584 47 618 70 q 675 110 704 164 q 734 219 734 284 q 734 350 711 413 q 688 477 644 533 q 589 602 518 639 q 446 677 369 677 q 249 677 173 602 q 97 527 97 410 q 97 349 122 286 q 147 222 193 166 q 250 98 320 60 q 391 23 463 23 z m 785 359 q 785 289 763 227 q 742 165 699 113 q 646 48 572 15 q 498 -19 408 -19 q 332 -19 266 7 q 200 33 147 85 q 97 134 72 199 q 46 264 46 341 q 46 397 60 448 q 73 499 101 547 q 148 627 234 675 q 319 722 419 722 q 494 722 558 699 q 621 676 672 630 q 727 580 756 511 q 785 441 785 359 z"},"(":{"x_min":0,"x_max":301,"ha":301,"o":"m 151 251 q 151 136 170 42 q 188 -52 227 -130 q 238 -152 256 -180 q 273 -208 273 -214 q 273 -216 271 -218 q 269 -219 265 -219 q 259 -219 239 -196 q 219 -172 191 -132 q 134 -50 106 46 q 78 142 78 251 q 78 362 106 458 q 134 554 191 635 q 219 675 239 698 q 259 722 265 722 q 269 722 271 720 q 273 719 273 717 q 273 710 259 689 q 250 675 245 667 q 197 581 174 480 q 151 380 151 251 z"},"C":{"x_min":0,"x_max":685,"ha":685,"o":"m 587 602 q 539 643 479 665 q 420 688 362 688 q 252 688 181 613 q 111 537 111 418 q 111 351 129 286 q 147 222 182 166 q 225 98 290 61 q 354 24 430 24 q 467 24 500 34 q 534 44 564 64 q 581 76 599 92 q 617 108 620 108 q 625 108 626 106 q 628 104 628 100 q 628 94 617 81 q 606 67 587 51 q 546 17 494 -1 q 441 -19 382 -19 q 231 -19 138 79 q 45 176 45 335 q 45 411 65 474 q 86 538 126 587 q 182 655 253 688 q 324 721 414 721 q 458 721 505 711 q 551 702 600 682 q 607 731 613 748 q 619 764 628 764 q 632 764 634 761 q 635 759 635 750 q 635 747 633 734 q 623 656 623 577 q 623 512 627 454 q 628 446 628 444 q 628 440 625 437 q 623 434 619 434 q 611 434 605 454 q 600 474 595 524 z"},"W":{"x_min":0,"x_max":940,"ha":940,"o":"m 512 344 l 616 77 l 704 286 q 741 372 772 470 q 803 568 828 675 q 806 678 784 680 q 763 681 741 681 q 719 681 698 680 q 676 678 654 675 q 616 591 565 470 q 550 435 544 420 z m 462 284 l 304 675 q 284 678 264 680 q 244 681 224 681 q 205 681 185 680 q 166 678 146 675 l 376 77 z m 475 256 l 369 3 q 365 -6 360 -13 q 355 -19 353 -19 q 347 -19 341 -6 q 340 -5 340 -4 l 64 675 l 62 675 q -10 690 -10 701 q -10 706 -6 708 q -2 711 6 711 q 8 711 43 708 q 79 704 111 704 l 309 704 q 377 704 440 710 q 450 711 452 711 q 460 711 464 708 q 468 706 468 701 q 468 694 454 689 q 439 684 386 675 l 499 378 q 536 483 557 554 q 579 625 588 675 q 535 684 520 689 q 506 694 506 701 q 506 706 510 708 q 514 711 522 711 q 524 711 533 710 q 589 704 649 704 l 823 704 q 882 704 938 710 q 946 711 948 711 q 957 711 960 708 q 964 706 964 701 q 964 691 908 678 q 899 676 894 675 q 871 625 846 566 q 821 507 784 420 l 608 3 q 604 -6 600 -13 q 595 -19 593 -19 q 589 -19 587 -16 q 584 -13 580 -4 z"},"A":{"x_min":0,"x_max":690,"ha":690,"o":"m 184 227 l 165 175 q 156 151 145 114 q 135 78 123 28 q 186 24 212 18 q 239 12 239 2 q 239 -3 235 -5 q 232 -7 223 -7 q 217 -7 178 -3 q 139 1 106 1 q 68 1 27 -3 q -15 -7 -19 -7 q -28 -7 -31 -5 q -34 -3 -34 2 q -34 11 -14 16 q 6 22 62 28 q 82 66 103 112 q 124 158 149 218 l 303 594 q 287 631 274 657 q 262 684 249 706 l 332 741 q 343 697 367 631 q 391 565 429 474 l 545 199 q 568 144 587 102 q 606 61 625 28 q 681 22 701 16 q 721 11 721 2 q 721 -3 718 -5 q 714 -7 705 -7 q 701 -7 684 -5 q 621 1 564 1 q 511 1 449 -5 q 432 -7 427 -7 q 418 -7 415 -5 q 411 -3 411 2 q 411 11 436 17 q 460 23 527 28 q 515 78 480 164 l 478 170 l 454 227 z m 194 250 l 446 250 l 317 563 z"},"f":{"x_min":0,"x_max":308,"ha":308,"o":"m 175 342 l 221 342 q 248 342 270 344 q 292 345 311 349 l 311 311 q 287 314 265 316 q 243 318 221 318 l 175 318 l 175 124 q 175 103 176 79 q 178 55 180 29 q 242 25 268 19 q 295 13 295 3 q 295 -2 292 -4 q 289 -6 280 -6 q 277 -6 265 -5 q 212 0 163 0 q 112 0 58 -5 q 46 -6 43 -6 q 34 -6 31 -4 q 27 -2 27 3 q 27 10 43 16 q 59 21 106 29 q 108 50 109 74 q 110 98 110 124 l 110 318 l 89 318 q 70 318 54 316 q 38 314 25 311 l 25 349 q 38 345 54 344 q 69 342 89 342 l 110 342 l 110 575 q 110 642 122 682 q 135 722 163 763 q 198 813 223 833 q 249 852 279 852 q 303 852 316 839 q 329 827 329 804 q 329 781 317 768 q 305 755 283 755 q 270 755 260 761 q 251 767 244 779 q 243 782 241 786 q 234 801 225 801 q 205 801 190 713 q 175 625 175 486 z"},"Q":{"x_min":0,"x_max":831,"ha":831,"o":"m 403 -19 q 241 -12 143 87 q 46 185 46 341 q 46 397 60 448 q 73 499 101 547 q 148 627 234 675 q 319 722 419 722 q 494 722 558 699 q 621 676 672 630 q 727 580 756 511 q 785 441 785 359 q 785 247 730 156 q 675 64 580 19 q 547 3 501 -12 q 456 -28 376 -50 l 522 -91 l 545 -98 q 677 -136 711 -136 q 752 -136 793 -105 q 803 -98 805 -98 q 810 -98 813 -101 q 816 -104 816 -108 q 816 -117 788 -142 q 783 -146 780 -149 q 759 -168 731 -178 q 702 -188 668 -188 q 633 -188 592 -180 q 550 -172 500 -156 l 304 -92 q 282 -85 266 -82 q 250 -78 237 -78 q 208 -78 176 -90 q 144 -101 139 -101 q 137 -101 135 -100 q 134 -98 134 -96 q 134 -79 183 -59 q 232 -39 287 -39 q 293 -39 311 -40 q 320 -41 326 -41 q 349 -35 367 -30 q 385 -24 403 -19 z m 463 23 q 505 23 545 35 q 584 47 618 70 q 675 110 704 164 q 734 219 734 284 q 734 350 711 413 q 688 477 644 533 q 589 602 518 639 q 446 677 369 677 q 249 677 173 602 q 97 527 97 410 q 97 349 122 286 q 147 222 193 166 q 250 98 320 60 q 391 23 463 23 z"},"w":{"x_min":0,"x_max":584,"ha":584,"o":"m 212 55 l 282 216 l 243 323 q 228 325 211 326 q 194 327 175 327 q 154 327 144 327 q 134 326 125 325 z m 460 207 q 472 236 481 265 q 490 294 497 324 q 466 331 455 336 q 443 341 443 347 q 443 352 447 354 q 450 356 459 356 q 463 356 485 354 q 508 352 526 352 q 544 352 567 354 q 589 356 593 356 q 602 356 605 354 q 609 352 609 347 q 609 341 597 336 q 584 331 552 324 q 522 264 500 220 q 479 176 472 160 l 398 -2 l 397 -4 q 387 -28 379 -28 q 375 -28 370 -22 q 366 -16 361 -2 l 294 183 l 212 -2 q 206 -17 201 -22 q 197 -28 192 -28 q 187 -28 182 -21 q 177 -15 172 -2 l 53 327 q 26 331 14 336 q 2 340 2 347 q 2 352 6 354 q 9 356 18 356 q 23 356 57 353 q 91 350 120 350 l 252 350 q 282 350 315 353 q 349 356 354 356 q 363 356 366 354 q 370 352 370 347 q 370 340 357 335 q 343 330 314 324 l 402 61 z"},"-":{"x_min":0,"x_max":338,"ha":338,"o":"m 53 155 l 53 215 l 285 215 l 285 155 z"},"E":{"x_min":0,"x_max":683,"ha":683,"o":"m 291 704 q 356 704 426 709 q 496 713 570 723 l 580 757 q 582 763 585 767 q 588 770 592 770 q 596 770 598 767 q 599 765 599 757 q 599 757 595 724 q 591 692 591 660 q 591 619 594 576 q 595 566 595 565 q 595 560 593 557 q 590 554 587 554 q 582 554 579 560 q 576 565 573 585 l 564 650 q 519 665 456 673 q 393 681 322 681 q 303 681 279 680 q 256 678 229 675 q 226 636 224 592 q 222 547 222 483 l 222 372 l 333 372 q 393 372 444 377 q 494 383 535 394 l 541 421 q 542 428 544 438 q 552 475 562 475 q 565 475 566 472 q 568 469 568 463 q 568 460 566 446 q 559 397 559 354 q 559 321 562 285 q 565 250 565 247 q 565 242 563 238 q 561 235 557 235 q 547 235 542 279 q 541 286 540 290 l 535 325 q 494 336 443 342 q 392 348 333 348 l 222 348 l 222 221 q 222 156 224 112 q 226 67 229 28 q 256 27 270 26 q 284 26 295 26 q 374 26 443 37 q 513 48 569 70 l 578 128 q 581 147 584 153 q 586 158 592 158 q 596 158 598 155 q 600 151 600 147 q 600 146 599 136 q 595 93 595 52 q 595 13 601 -25 q 602 -33 602 -34 q 602 -42 600 -45 q 599 -48 595 -48 q 592 -48 589 -45 q 586 -42 584 -34 l 576 -16 q 498 -8 417 -4 q 336 0 253 0 l 174 0 q 138 0 100 -3 q 62 -7 61 -7 q 52 -7 49 -5 q 45 -3 45 2 q 45 11 65 16 q 85 22 141 28 q 145 65 146 109 q 148 154 148 221 l 148 483 q 148 549 146 594 q 145 638 141 675 q 85 681 65 687 q 45 692 45 701 q 45 706 49 708 q 53 711 61 711 q 64 711 76 710 q 132 704 185 704 z"},"s":{"x_min":0,"x_max":356,"ha":356,"o":"m 72 -1 l 67 -18 q 63 -30 60 -35 q 56 -40 51 -40 q 48 -40 46 -38 q 44 -35 44 -31 q 44 -30 49 -1 q 53 28 53 55 q 53 73 51 96 q 49 119 49 124 q 49 131 51 135 q 53 138 57 138 q 67 138 72 87 q 73 74 74 66 q 102 46 132 36 q 161 26 194 26 q 235 26 259 41 q 283 57 283 83 q 283 124 207 135 q 185 138 173 140 q 102 152 74 177 q 46 201 46 248 q 46 300 82 332 q 118 363 178 363 q 202 363 227 358 q 251 354 279 344 l 283 357 q 287 370 291 375 q 294 380 298 380 q 302 380 304 377 q 306 375 306 370 q 306 369 302 343 q 298 317 298 292 q 298 269 300 244 q 300 239 300 238 q 300 231 298 228 q 296 225 292 225 q 283 225 278 266 q 276 279 275 287 q 248 310 217 322 q 185 334 154 334 q 121 334 99 317 q 77 299 77 273 q 77 235 149 226 q 178 222 195 219 q 262 207 289 184 q 316 160 316 116 q 316 60 273 23 q 229 -14 162 -14 q 147 -14 124 -11 q 102 -7 72 -1 z"},">":{"x_min":0,"x_max":833,"ha":833,"o":"m 129 554 l 704 318 l 704 278 l 129 43 l 129 96 l 628 298 l 129 501 z"},"l":{"x_min":0,"x_max":250,"ha":250,"o":"m 157 218 q 157 199 159 151 q 160 104 163 29 q 209 21 225 16 q 240 10 240 3 q 240 -2 237 -4 q 234 -6 225 -6 q 223 -6 189 -3 q 156 0 125 0 q 94 0 61 -3 q 27 -6 25 -6 q 16 -6 12 -4 q 9 -2 9 3 q 9 10 24 15 q 40 21 87 29 q 89 70 91 116 q 92 162 92 218 l 89 741 q 89 771 85 780 q 81 789 70 789 q 61 789 45 780 q 29 771 22 771 q 19 771 16 772 q 14 774 14 776 q 14 785 22 794 q 31 803 51 815 q 81 833 105 843 q 130 853 144 853 q 152 853 156 845 q 160 836 160 818 z"},"8":{"x_min":0,"x_max":551,"ha":551,"o":"m 313 397 q 362 421 385 448 q 407 475 407 509 q 407 564 357 606 q 308 649 242 649 q 190 649 157 623 q 124 597 124 556 q 124 511 167 474 q 211 437 313 397 z m 225 346 q 160 325 129 290 q 97 255 97 205 q 97 131 159 78 q 220 24 307 24 q 375 24 419 63 q 463 102 463 160 q 463 214 408 258 q 353 301 225 346 z m 199 360 q 138 386 109 423 q 79 460 79 510 q 79 538 89 565 q 99 591 118 616 q 147 653 192 674 q 236 695 284 695 q 363 695 413 653 q 464 611 464 546 q 464 498 432 457 q 401 417 338 385 q 432 350 472 307 q 513 265 513 205 q 513 173 503 143 q 492 113 472 87 q 435 38 376 9 q 318 -19 253 -19 q 154 -19 90 35 q 26 90 26 172 q 26 236 69 283 q 112 330 199 360 z"},"\\":{"x_min":0,"x_max":292,"ha":292,"o":"m 10 722 l 53 722 l 303 -93 l 259 -93 z"},"e":{"x_min":0,"x_max":407,"ha":407,"o":"m 104 216 l 163 216 q 208 216 243 218 q 278 220 307 224 q 307 279 281 312 q 255 344 212 344 q 165 344 136 310 q 108 276 104 216 z m 103 195 q 103 124 142 79 q 181 34 243 34 q 270 34 292 44 q 315 55 332 75 q 339 83 349 96 q 361 112 366 112 q 369 112 371 110 q 373 107 373 104 q 373 97 366 83 q 359 69 347 55 q 319 21 283 3 q 248 -14 207 -14 q 131 -14 84 37 q 37 87 37 169 q 37 256 89 310 q 142 364 225 364 q 297 364 338 323 q 378 282 378 208 l 378 195 z"},"b":{"x_min":0,"x_max":475,"ha":475,"o":"m 157 0 q 99 -1 42 -6 q 31 -7 29 -7 q 20 -7 17 -5 q 13 -3 13 2 q 13 9 28 14 q 43 20 93 27 l 90 741 q 90 771 86 780 q 82 789 71 789 q 62 789 46 780 q 30 771 23 771 q 20 771 17 772 q 15 774 15 776 q 15 785 23 794 q 32 803 52 815 q 83 833 108 843 q 132 853 147 853 q 156 853 160 844 q 165 835 165 818 l 157 284 q 194 324 230 343 q 266 363 301 363 q 366 363 402 320 q 438 277 438 200 q 438 107 390 46 q 342 -14 272 -14 q 245 -14 217 -4 q 188 7 157 28 z m 157 256 l 158 63 q 184 35 210 21 q 236 7 264 7 q 314 7 340 46 q 365 86 365 163 q 365 237 338 278 q 312 320 265 320 q 237 320 212 306 q 188 292 157 256 z"},"%":{"x_min":0,"x_max":812,"ha":812,"o":"m 198 355 q 130 355 82 404 q 34 452 34 520 q 34 588 82 636 q 130 685 198 685 q 266 685 314 636 q 362 588 362 520 q 362 452 314 404 q 266 355 198 355 z m 198 380 q 245 380 271 417 q 298 455 298 520 q 298 585 271 622 q 245 659 198 659 q 151 659 125 622 q 98 585 98 520 q 98 455 125 417 q 151 380 198 380 z m 616 16 q 663 16 689 53 q 716 90 716 156 q 716 222 689 259 q 663 296 616 296 q 569 296 543 259 q 516 222 516 156 q 516 90 543 53 q 569 16 616 16 z m 616 -9 q 548 -9 500 40 q 452 88 452 156 q 452 224 500 272 q 548 321 616 321 q 684 321 732 272 q 780 224 780 156 q 780 88 732 40 q 684 -9 616 -9 z m 196 -38 l 579 714 l 618 714 l 234 -38 z"},"m":{"x_min":0,"x_max":796,"ha":796,"o":"m 433 294 q 514 336 550 350 q 586 364 609 364 q 659 364 680 334 q 700 305 700 228 l 700 124 q 700 102 701 78 q 703 55 705 29 q 752 21 768 16 q 784 10 784 3 q 784 -2 781 -4 q 777 -6 768 -6 q 766 -6 733 -3 q 699 0 668 0 q 645 0 616 -3 q 586 -6 580 -6 q 571 -6 568 -4 q 564 -2 564 3 q 564 9 577 15 q 589 20 631 29 q 633 56 635 79 q 636 103 636 124 l 636 220 q 636 273 620 296 q 604 319 569 319 q 545 319 512 308 q 479 296 437 273 l 437 124 q 437 97 438 73 q 439 50 441 29 q 482 20 495 15 q 508 9 508 3 q 508 -2 505 -4 q 501 -6 493 -6 q 487 -6 457 -3 q 427 0 404 0 q 381 0 352 -3 q 322 -6 316 -6 q 307 -6 303 -4 q 300 -2 300 3 q 300 9 313 15 q 326 20 367 29 q 370 56 371 80 q 372 103 372 124 l 372 220 q 372 273 356 296 q 341 319 305 319 q 281 319 248 308 q 215 296 173 273 l 173 124 q 173 103 174 79 q 175 55 178 29 q 219 20 232 15 q 245 9 245 3 q 245 -2 241 -4 q 238 -6 229 -6 q 223 -6 193 -3 q 164 0 141 0 q 110 0 76 -3 q 43 -6 41 -6 q 32 -6 29 -4 q 25 -2 25 3 q 25 10 41 16 q 57 21 104 29 q 106 51 107 74 q 108 98 108 124 l 108 240 q 108 260 106 280 q 105 299 102 316 l 45 313 l 39 313 q 32 313 30 315 q 27 317 27 322 q 27 333 56 336 q 69 338 77 340 q 85 340 122 354 q 158 369 162 369 q 167 369 170 364 q 173 358 173 347 l 173 295 q 254 338 289 351 q 323 364 345 364 q 382 364 405 346 q 428 328 433 294 z"},"#":{"x_min":0,"x_max":769,"ha":769,"o":"m 342 426 l 291 282 l 435 282 l 486 426 z m 387 710 l 443 710 l 359 474 l 503 474 l 587 710 l 642 710 l 558 474 l 712 474 l 695 426 l 541 426 l 491 282 l 657 282 l 639 234 l 473 234 l 390 0 l 335 0 l 418 234 l 275 234 l 191 0 l 136 0 l 219 234 l 57 234 l 75 282 l 236 282 l 287 426 l 112 426 l 129 474 l 304 474 z"},",":{"x_min":0,"x_max":275,"ha":275,"o":"m 162 100 q 164 101 165 101 q 167 101 170 101 q 178 101 182 97 q 186 92 186 83 q 186 66 167 20 q 149 -26 117 -88 l 93 -135 l 92 -137 q 72 -176 61 -176 q 57 -176 54 -174 q 52 -171 52 -167 q 52 -161 61 -135 q 94 -39 94 39 q 94 47 93 58 q 92 69 92 72 q 92 82 98 87 q 104 91 128 95 z"},"n":{"x_min":0,"x_max":542,"ha":542,"o":"m 173 124 q 173 103 174 79 q 175 55 178 29 q 226 21 241 16 q 257 10 257 3 q 257 -2 253 -4 q 250 -6 241 -6 q 239 -6 205 -3 q 172 0 141 0 q 110 0 77 -3 q 43 -6 41 -6 q 32 -6 29 -4 q 25 -2 25 3 q 25 10 41 16 q 57 21 104 29 q 106 51 107 74 q 108 98 108 124 l 108 240 q 108 260 106 280 q 105 299 102 316 l 45 313 l 39 313 q 32 313 29 315 q 25 318 25 322 q 25 333 59 337 q 70 339 77 340 q 88 340 124 354 q 159 369 162 369 q 167 369 170 364 q 173 358 173 347 l 173 295 q 247 333 288 348 q 328 363 352 363 q 404 363 425 334 q 446 306 446 232 l 446 124 q 446 97 447 73 q 448 50 450 29 q 498 21 513 16 q 529 10 529 3 q 529 -2 525 -4 q 522 -6 513 -6 q 511 -6 477 -3 q 444 0 413 0 q 382 0 349 -3 q 315 -6 313 -6 q 304 -6 301 -4 q 297 -2 297 3 q 297 10 313 16 q 329 21 376 29 q 378 56 380 79 q 381 103 381 124 l 381 220 q 381 273 364 296 q 346 319 307 319 q 281 319 247 307 q 213 296 173 273 z"},"h":{"x_min":0,"x_max":525,"ha":525,"o":"m 89 741 q 89 771 85 780 q 81 789 70 789 q 61 789 45 780 q 29 771 22 771 q 19 771 16 772 q 14 774 14 776 q 14 785 22 794 q 31 803 51 815 q 81 833 105 843 q 130 853 144 853 q 152 853 156 845 q 160 836 160 818 l 157 295 q 231 333 272 348 q 312 363 336 363 q 388 363 409 334 q 430 306 430 232 l 430 124 q 430 97 431 73 q 432 50 434 29 q 481 21 497 16 q 513 10 513 3 q 513 -2 510 -4 q 506 -6 497 -6 q 495 -6 461 -3 q 428 0 397 0 q 366 0 333 -3 q 299 -6 297 -6 q 288 -6 284 -4 q 281 -2 281 3 q 281 10 297 16 q 312 21 360 29 q 363 58 364 81 q 365 103 365 124 l 365 220 q 365 273 348 296 q 330 319 291 319 q 265 319 231 307 q 197 296 157 273 l 157 124 q 157 102 158 78 q 160 55 162 29 q 208 21 224 16 q 240 10 240 3 q 240 -2 237 -4 q 234 -6 225 -6 q 223 -6 189 -3 q 156 0 125 0 q 94 0 61 -3 q 27 -6 25 -6 q 16 -6 12 -4 q 9 -2 9 3 q 9 10 25 16 q 41 21 87 29 q 89 58 91 81 q 92 104 92 124 z"},"z":{"x_min":0,"x_max":410,"ha":410,"o":"m 345 55 q 346 61 348 70 q 356 109 365 109 q 368 109 371 106 q 373 104 373 100 q 373 98 371 86 q 364 46 364 9 q 364 -8 367 -27 q 367 -30 367 -31 q 367 -39 365 -42 q 363 -45 360 -45 q 354 -45 352 -40 q 349 -36 346 -22 l 343 -8 q 315 -4 280 -2 q 244 0 197 0 q 124 0 57 -3 q 47 -4 45 -4 q 38 -4 34 -1 q 31 2 31 9 q 31 12 115 115 q 200 218 281 329 l 235 329 q 200 329 159 322 q 118 314 76 301 q 74 293 72 281 q 65 245 56 245 q 53 245 51 248 q 48 250 48 254 q 48 254 52 283 q 57 312 57 341 q 57 361 55 382 q 55 387 55 388 q 55 394 57 397 q 59 400 62 400 q 67 400 71 394 q 74 388 76 376 l 78 357 q 119 353 155 351 q 190 349 222 349 q 287 349 350 354 q 360 354 362 354 q 369 354 372 351 q 376 348 376 343 q 376 340 288 238 q 200 137 125 20 l 196 20 q 239 20 277 29 q 315 38 345 55 z"},"B":{"x_min":0,"x_max":685,"ha":685,"o":"m 229 28 q 252 22 276 19 q 299 16 322 16 q 423 16 478 59 q 533 102 533 180 q 533 261 470 299 q 408 337 275 337 q 253 337 242 337 q 231 336 222 336 l 222 221 q 222 156 224 112 q 226 67 229 28 z m 222 361 q 236 360 252 359 q 268 359 293 359 q 413 359 470 399 q 528 438 528 521 q 528 597 473 643 q 417 689 327 689 q 311 689 288 686 q 266 683 229 675 q 226 636 224 592 q 222 547 222 482 z m 141 28 q 145 65 146 109 q 148 154 148 221 l 148 482 q 148 549 146 594 q 145 638 141 675 q 85 681 65 687 q 45 692 45 701 q 45 706 49 708 q 53 711 61 711 q 64 711 105 707 q 146 702 185 702 q 226 702 289 707 q 353 712 375 712 q 486 712 544 668 q 603 625 603 542 q 603 473 555 422 q 508 372 428 356 q 518 351 568 307 q 619 263 619 192 q 619 103 548 48 q 477 -8 360 -8 q 335 -8 277 -3 q 218 1 185 1 q 147 1 106 -3 q 64 -7 61 -7 q 52 -7 49 -5 q 45 -3 45 2 q 45 11 65 16 q 85 22 141 28 z"},"K":{"x_min":0,"x_max":697,"ha":697,"o":"m 222 350 q 237 361 254 376 q 271 392 298 420 l 543 675 q 534 678 518 682 q 478 692 478 701 q 478 706 482 708 q 486 711 494 711 q 497 711 528 708 q 559 705 587 705 q 615 705 646 708 q 677 711 680 711 q 688 711 691 709 q 695 707 695 701 q 695 693 662 684 q 645 679 634 675 q 573 631 501 572 q 430 513 354 442 l 258 352 l 285 352 q 319 352 343 349 q 366 346 382 339 q 428 319 481 244 q 487 235 490 231 l 582 100 q 607 65 626 49 q 645 32 660 32 q 670 32 681 39 q 692 45 693 45 q 698 45 700 42 q 702 40 702 34 q 702 20 673 0 q 644 -19 617 -19 q 592 -19 568 -1 q 545 17 518 56 l 420 200 l 416 206 q 336 324 248 324 q 238 324 232 324 q 227 324 222 323 l 222 221 q 222 156 224 112 q 226 67 229 28 q 285 22 305 16 q 325 11 325 2 q 325 -3 322 -5 q 318 -7 309 -7 q 305 -7 264 -3 q 223 1 185 1 q 147 1 106 -3 q 65 -7 61 -7 q 52 -7 49 -5 q 45 -3 45 2 q 45 11 65 16 q 85 22 141 28 q 145 65 146 109 q 148 154 148 221 l 148 483 q 148 549 146 594 q 145 638 141 675 q 85 681 65 687 q 45 692 45 701 q 45 706 49 708 q 53 711 61 711 q 64 711 106 707 q 147 702 185 702 q 223 702 264 707 q 306 711 309 711 q 317 711 321 708 q 325 706 325 701 q 325 692 305 687 q 285 681 229 675 q 226 636 224 592 q 222 547 222 483 z"},"R":{"x_min":0,"x_max":664,"ha":664,"o":"m 229 675 q 226 636 224 592 q 222 547 222 483 l 222 222 q 222 157 224 113 q 226 68 229 29 q 285 24 308 18 q 332 12 332 3 q 332 -2 329 -4 q 325 -6 317 -6 q 316 -6 272 -2 q 228 2 185 2 q 147 2 106 -2 q 65 -6 61 -6 q 52 -6 49 -4 q 45 -2 45 3 q 45 12 65 17 q 85 23 141 29 q 145 66 146 110 q 148 155 148 222 l 148 483 q 148 549 146 594 q 145 638 141 675 q 85 681 65 687 q 45 692 45 701 q 45 706 49 708 q 53 711 61 711 q 64 711 106 707 q 147 702 185 702 q 211 702 272 706 q 332 710 365 710 q 476 710 540 663 q 605 616 605 536 q 605 448 534 390 q 463 332 343 324 l 527 87 q 557 49 572 38 q 587 28 605 28 q 618 28 634 34 q 650 40 654 40 q 658 40 660 38 q 662 36 662 32 q 662 20 626 1 q 590 -18 554 -18 q 525 -18 503 -3 q 481 12 444 63 l 268 310 q 266 312 262 317 q 252 330 252 337 q 252 342 256 346 q 261 349 267 349 q 271 349 288 347 q 305 345 319 345 q 425 345 478 385 q 531 424 531 504 q 531 585 475 635 q 419 686 329 686 q 310 686 286 683 q 261 681 229 675 z"},"T":{"x_min":0,"x_max":657,"ha":657,"o":"m 365 221 q 365 156 367 112 q 368 67 372 28 q 437 23 461 17 q 485 11 485 2 q 485 -3 481 -5 q 478 -7 469 -7 q 465 -7 448 -5 q 384 1 328 1 q 271 1 208 -5 q 191 -7 187 -7 q 178 -7 175 -5 q 171 -3 171 2 q 171 11 195 17 q 219 23 284 28 q 288 65 289 110 q 291 154 291 221 l 291 483 q 291 551 289 597 q 288 642 284 679 l 272 679 q 209 679 155 672 q 100 664 55 650 l 46 585 q 43 565 40 560 q 37 554 32 554 q 28 554 26 557 q 24 560 24 565 q 24 566 25 576 q 28 618 28 660 q 28 691 24 724 q 20 757 20 759 q 20 764 22 767 q 25 770 28 770 q 32 770 34 767 q 37 764 39 757 l 49 723 q 124 713 194 709 q 264 704 328 704 q 392 704 462 709 q 532 713 607 723 l 618 757 q 620 764 623 767 q 625 770 629 770 q 633 770 635 767 q 636 765 636 757 q 636 757 632 724 q 628 692 628 660 q 628 619 631 576 q 632 567 632 565 q 632 560 630 557 q 627 554 624 554 q 619 554 616 560 q 613 565 610 585 l 602 650 q 558 665 502 672 q 447 679 384 679 l 372 679 q 368 640 367 595 q 365 550 365 483 z"},"P":{"x_min":0,"x_max":644,"ha":644,"o":"m 222 316 l 222 221 q 222 156 224 112 q 226 67 229 28 q 293 24 321 18 q 349 12 349 2 q 349 -3 345 -5 q 342 -7 333 -7 q 330 -7 315 -5 q 249 1 185 1 q 147 1 106 -3 q 65 -7 61 -7 q 52 -7 49 -5 q 45 -3 45 2 q 45 11 65 16 q 85 22 141 28 q 145 65 146 109 q 148 154 148 221 l 148 483 q 148 549 146 594 q 145 638 141 675 q 85 681 65 687 q 45 692 45 701 q 45 706 49 708 q 53 711 61 711 q 64 711 105 707 q 146 702 185 702 q 221 702 279 707 q 337 711 359 711 q 476 711 541 661 q 607 611 607 523 q 607 428 530 369 q 453 309 329 309 q 305 309 279 311 q 252 312 222 316 z m 222 342 q 254 338 278 336 q 301 334 319 334 q 418 334 471 380 q 525 426 525 511 q 525 595 473 641 q 420 688 326 688 q 305 688 281 685 q 257 682 229 676 q 226 638 224 594 q 222 549 222 485 z"},"|":{"x_min":0,"x_max":500,"ha":500,"o":"m 224 764 l 277 764 l 277 -236 l 224 -236 z"},"t":{"x_min":0,"x_max":326,"ha":326,"o":"m 97 316 l 76 316 q 47 316 34 314 q 21 313 12 310 l 12 348 q 23 345 38 343 q 53 342 76 342 l 99 342 q 99 411 97 555 l 97 561 l 169 561 q 165 490 162 438 q 160 387 159 342 l 208 342 q 240 342 261 343 q 282 345 298 348 l 298 310 q 284 313 267 314 q 249 316 208 316 l 159 316 l 154 154 l 154 137 q 154 81 167 60 q 181 38 214 38 q 243 38 270 57 q 297 76 299 76 q 303 76 305 73 q 308 71 308 67 q 308 49 264 18 q 220 -14 177 -14 q 131 -14 111 14 q 91 43 91 111 l 91 130 z"},"M":{"x_min":0,"x_max":891,"ha":891,"o":"m 195 549 l 176 337 q 171 281 168 223 q 166 166 166 105 q 166 73 166 57 q 167 42 167 28 q 226 23 250 17 q 275 11 275 2 q 275 -3 271 -5 q 268 -7 259 -7 q 256 -7 215 -3 q 173 1 135 1 q 107 1 71 -3 q 34 -7 26 -7 q 17 -7 13 -5 q 10 -3 10 2 q 10 10 28 15 q 47 21 100 28 q 114 77 126 154 q 139 231 149 327 l 175 592 q 155 639 139 659 q 123 679 103 685 q 97 687 86 689 q 67 692 67 701 q 67 706 71 708 q 75 711 83 711 q 85 711 94 710 q 131 706 167 706 q 182 706 191 706 q 199 707 207 707 q 228 656 246 613 q 265 569 279 540 l 445 201 l 630 707 q 644 707 657 706 q 670 706 688 706 q 723 706 761 710 q 771 711 773 711 q 781 711 785 708 q 789 706 789 701 q 789 695 777 690 q 764 685 711 675 l 743 236 q 748 174 754 124 q 760 74 768 28 q 823 19 837 14 q 852 9 852 2 q 852 -3 848 -5 q 845 -7 836 -7 q 832 -7 791 -3 q 750 1 712 1 q 674 1 633 -3 q 591 -7 587 -7 q 578 -7 575 -5 q 572 -3 572 2 q 572 11 596 17 q 620 23 676 28 q 677 36 677 45 q 677 54 677 73 q 677 104 675 138 q 674 173 671 210 l 637 656 l 438 106 q 435 96 432 92 q 429 89 424 89 q 419 89 413 102 q 412 104 411 105 z"},"g":{"x_min":0,"x_max":447,"ha":447,"o":"m 358 197 q 358 241 304 280 q 250 320 189 320 q 149 320 123 297 q 96 274 96 240 q 96 196 148 156 q 200 117 262 117 q 302 117 330 141 q 358 164 358 197 z m 132 -52 q 109 -78 100 -95 q 91 -112 91 -129 q 91 -163 118 -181 q 146 -200 196 -200 q 266 -200 311 -171 q 356 -142 356 -100 q 356 -56 174 -53 q 146 -52 132 -52 z m 113 97 q 83 118 69 142 q 55 167 55 198 q 55 263 113 313 q 171 364 248 364 q 270 364 292 358 q 314 352 338 339 q 348 348 352 356 q 357 364 357 372 q 357 383 339 405 q 321 427 321 439 q 321 453 330 462 q 340 471 354 471 q 374 471 388 453 q 402 435 402 408 q 402 391 391 372 q 379 353 354 328 q 376 305 387 281 q 398 258 398 233 q 398 169 340 121 q 282 73 201 73 q 182 73 165 77 q 148 81 133 89 q 120 77 114 65 q 107 54 107 44 q 107 16 202 11 q 218 10 226 10 l 229 10 q 392 1 392 -62 q 392 -130 332 -181 q 272 -231 187 -231 q 126 -231 93 -208 q 60 -185 60 -144 q 60 -125 73 -101 q 87 -76 113 -46 q 85 -43 70 -31 q 54 -20 54 -1 q 54 18 69 43 q 84 68 113 97 z"},"j":{"x_min":0,"x_max":244,"ha":244,"o":"m 77 543 q 77 563 92 578 q 107 593 127 593 q 148 593 163 578 q 178 564 178 543 q 178 521 164 507 q 149 492 127 492 q 106 492 92 507 q 77 522 77 543 z m 101 240 q 101 260 100 280 q 98 299 95 316 l 38 313 l 33 313 q 25 313 22 315 q 19 318 19 323 q 19 333 51 338 q 63 340 69 341 q 81 341 116 355 q 152 369 155 369 q 161 369 163 363 q 166 357 166 347 l 166 28 q 166 -55 153 -92 q 141 -130 110 -165 q 87 -191 60 -211 q 33 -231 25 -231 q 20 -231 17 -229 q 14 -228 14 -224 q 14 -218 28 -205 q 42 -192 51 -182 q 79 -151 90 -109 q 101 -67 101 15 z"},"i":{"x_min":0,"x_max":266,"ha":266,"o":"m 173 124 q 173 103 174 79 q 175 55 178 29 q 226 21 241 16 q 257 10 257 3 q 257 -2 253 -4 q 250 -6 241 -6 q 239 -6 205 -3 q 172 0 141 0 q 110 0 77 -3 q 43 -6 41 -6 q 32 -6 29 -4 q 25 -2 25 3 q 25 10 41 16 q 57 21 104 29 q 106 51 107 74 q 108 98 108 124 l 108 240 q 108 260 106 280 q 105 299 102 316 l 45 313 l 39 313 q 32 313 30 315 q 27 317 27 322 q 27 333 60 337 q 71 339 77 340 q 86 340 122 354 q 158 369 162 369 q 167 369 170 364 q 173 358 173 347 z m 84 543 q 84 563 99 578 q 114 593 134 593 q 155 593 170 578 q 185 564 185 543 q 185 521 170 507 q 156 492 134 492 q 113 492 99 507 q 84 522 84 543 z"},"y":{"x_min":0,"x_max":426,"ha":426,"o":"m 195 -29 l 54 324 q 19 330 6 335 q -8 340 -8 347 q -8 352 -4 354 q -1 356 8 356 q 11 356 37 354 q 63 351 87 351 q 110 351 137 354 q 163 356 166 356 q 175 356 178 354 q 182 352 182 347 q 182 340 168 335 q 155 330 125 324 l 232 44 q 266 112 289 182 q 312 252 323 324 q 293 331 281 336 q 270 341 270 347 q 270 352 274 354 q 277 356 286 356 q 290 356 312 354 q 334 352 353 352 q 372 352 394 354 q 416 356 420 356 q 429 356 432 354 q 436 352 436 347 q 436 341 424 336 q 412 331 379 324 q 340 225 305 147 q 271 68 254 36 l 183 -98 l 181 -102 q 113 -231 68 -231 q 47 -231 33 -217 q 19 -203 19 -181 q 19 -160 32 -145 q 45 -131 64 -131 q 81 -131 90 -138 q 100 -145 103 -160 q 118 -153 139 -122 q 161 -92 195 -29 z"},"@":{"x_min":0,"x_max":986,"ha":986,"o":"m 582 166 q 553 114 515 88 q 476 61 430 61 q 371 61 334 106 q 298 151 298 225 q 298 277 322 329 q 346 381 389 424 q 422 456 459 474 q 497 491 533 491 q 575 491 603 466 q 630 441 641 394 l 668 483 l 732 483 l 649 187 q 644 168 642 157 q 640 146 640 136 q 640 110 653 96 q 666 82 689 82 q 712 82 742 97 q 772 111 798 136 q 843 179 869 243 q 894 307 894 379 q 894 518 799 602 q 705 687 550 687 q 464 687 389 658 q 315 630 257 575 q 192 514 158 431 q 125 348 125 247 q 125 161 152 98 q 180 36 239 -15 q 295 -64 368 -89 q 440 -114 525 -114 q 606 -114 683 -88 q 759 -62 826 -12 l 841 -29 q 769 -82 689 -109 q 608 -136 522 -136 q 430 -136 356 -114 q 282 -91 222 -46 q 148 10 110 89 q 72 167 72 262 q 72 362 114 448 q 156 534 236 600 q 300 654 378 681 q 455 708 544 708 q 712 708 814 617 q 915 525 915 374 q 915 297 887 230 q 858 163 806 115 q 777 88 746 75 q 714 61 682 61 q 635 61 610 87 q 585 114 582 166 z m 534 473 q 507 473 485 458 q 462 443 439 408 q 403 354 382 293 q 361 232 361 185 q 361 138 382 111 q 403 83 438 83 q 471 83 501 105 q 531 126 559 170 q 587 214 604 267 q 620 320 620 365 q 620 412 595 442 q 571 473 534 473 z"},".":{"x_min":0,"x_max":275,"ha":275,"o":"m 138 -14 q 116 -14 100 1 q 85 17 85 39 q 85 60 101 75 q 117 91 138 91 q 160 91 175 76 q 190 61 190 39 q 190 16 175 1 q 161 -14 138 -14 z"},"p":{"x_min":0,"x_max":475,"ha":475,"o":"m 160 258 l 160 62 q 182 35 208 21 q 235 7 264 7 q 313 7 339 47 q 365 87 365 163 q 365 237 338 278 q 312 320 265 320 q 236 320 211 306 q 187 292 160 258 z m 160 -81 q 160 -115 162 -146 q 163 -176 166 -204 q 235 -212 259 -217 q 283 -222 283 -228 q 283 -233 279 -236 q 274 -239 266 -239 q 264 -239 254 -238 q 198 -233 141 -233 q 94 -233 43 -238 q 31 -239 28 -239 q 19 -239 16 -237 q 12 -235 12 -230 q 12 -223 28 -217 q 44 -212 89 -205 q 92 -176 94 -145 q 95 -114 95 -81 l 95 240 q 95 260 94 280 q 92 299 89 316 l 32 313 l 26 313 q 20 313 17 315 q 14 317 14 322 q 14 332 43 336 q 56 338 64 340 q 70 340 104 354 q 139 369 149 369 q 154 369 157 363 q 160 357 160 347 l 160 290 q 199 328 233 345 q 267 363 300 363 q 365 363 401 320 q 437 277 437 200 q 437 107 389 46 q 341 -14 271 -14 q 244 -14 215 -3 q 187 7 160 27 z"},"X":{"x_min":0,"x_max":676,"ha":676,"o":"m 78 675 q 23 684 9 689 q -5 694 -5 701 q -5 706 -1 708 q 2 711 11 711 q 18 711 55 707 q 92 702 122 702 q 150 702 188 707 q 225 711 232 711 q 240 711 244 708 q 248 706 248 701 q 248 694 234 689 q 220 684 165 675 l 343 400 l 410 502 q 432 535 456 577 q 480 620 508 675 q 455 684 441 689 q 427 694 427 701 q 427 706 431 708 q 435 711 443 711 q 445 711 479 708 q 512 704 543 704 q 574 704 608 708 q 642 711 644 711 q 652 711 656 708 q 660 706 660 701 q 660 694 642 688 q 625 681 586 675 q 531 616 490 565 q 448 514 418 470 l 359 381 l 594 28 q 651 22 672 16 q 693 11 693 2 q 693 -3 689 -5 q 686 -7 677 -7 q 672 -7 632 -2 q 591 2 555 2 q 521 2 481 -2 q 441 -7 436 -7 q 427 -7 424 -5 q 420 -3 420 2 q 420 10 438 15 q 456 21 508 28 l 316 323 l 228 188 q 213 167 193 127 q 173 87 147 28 q 206 22 227 16 q 248 11 248 2 q 248 -3 244 -5 q 241 -7 232 -7 q 225 -7 187 -3 q 150 1 120 1 q 92 1 55 -3 q 19 -7 11 -7 q 2 -7 -1 -5 q -5 -3 -5 2 q -5 9 9 14 q 23 19 77 28 q 118 81 158 135 q 197 188 235 244 l 302 342 z"},"*":{"x_min":0,"x_max":338,"ha":338,"o":"m 159 560 l 154 563 q 134 550 107 523 q 81 496 66 496 q 56 496 49 504 q 42 512 42 522 q 42 542 86 554 q 124 565 147 576 l 147 583 q 125 595 87 606 q 43 619 43 638 q 43 648 50 656 q 57 664 67 664 q 81 664 107 637 q 134 610 156 598 l 162 601 q 162 626 153 657 q 144 687 144 693 q 144 707 151 714 q 157 722 169 722 q 181 722 188 714 q 195 707 195 693 q 195 687 186 657 q 178 627 177 601 l 183 598 q 203 611 229 637 q 255 663 270 663 q 280 663 287 656 q 294 648 294 637 q 294 618 250 605 q 213 595 190 584 l 190 577 q 213 566 251 555 q 296 542 296 523 q 296 513 289 505 q 282 497 272 497 q 258 497 231 523 q 205 550 183 562 l 177 559 q 178 533 186 503 q 195 473 195 467 q 195 454 188 446 q 181 438 169 438 q 157 438 151 446 q 144 453 144 467 q 144 474 152 500 q 160 527 160 548 q 160 550 160 554 q 159 558 159 560 z"},"Y":{"x_min":0,"x_max":623,"ha":623,"o":"m 68 675 l 67 675 q -6 690 -6 701 q -6 706 -2 708 q 1 711 10 711 q 16 711 52 707 q 88 703 119 703 q 146 703 181 707 q 216 711 223 711 q 231 711 235 708 q 239 706 239 701 q 239 694 225 689 q 210 684 157 675 l 335 377 l 426 519 q 450 557 469 595 q 489 634 504 675 q 449 684 435 689 q 420 694 420 701 q 420 706 424 708 q 428 711 436 711 q 439 711 470 708 q 501 705 529 705 q 557 705 588 708 q 619 711 622 711 q 630 711 634 708 q 638 706 638 701 q 638 691 582 678 q 573 676 568 675 q 548 651 525 620 q 502 588 466 534 l 345 350 l 345 221 q 345 156 347 112 q 348 67 352 28 q 408 22 428 16 q 448 11 448 2 q 448 -3 445 -5 q 441 -7 432 -7 q 428 -7 387 -3 q 346 1 308 1 q 271 1 229 -3 q 188 -7 184 -7 q 175 -7 172 -5 q 168 -3 168 2 q 168 11 188 16 q 208 22 264 28 q 268 65 269 110 q 271 154 271 221 l 271 343 z"},"c":{"x_min":0,"x_max":410,"ha":410,"o":"m 328 279 q 300 307 269 322 q 238 337 206 337 q 154 337 124 303 q 94 270 94 213 q 94 137 138 86 q 182 34 245 34 q 272 34 295 44 q 317 55 335 75 q 340 80 347 89 q 356 103 362 103 q 366 103 367 101 q 369 99 369 95 q 369 88 363 75 q 356 62 345 48 q 322 18 287 2 q 252 -14 208 -14 q 135 -14 86 37 q 37 87 37 163 q 37 248 93 305 q 148 363 230 363 q 252 363 278 358 q 304 354 333 344 q 333 346 334 351 q 342 388 351 388 q 354 388 356 385 q 359 383 359 380 q 359 377 357 365 q 352 322 352 285 q 352 253 357 218 q 358 210 358 208 q 358 202 355 199 q 353 196 349 196 q 341 196 337 212 q 333 229 328 279 z"},"!":{"x_min":0,"x_max":301,"ha":301,"o":"m 195 679 l 159 209 q 158 195 156 191 q 153 187 148 187 q 135 187 133 265 q 133 292 132 309 q 124 495 110 647 q 108 667 108 669 q 108 685 134 704 q 160 722 179 722 q 189 722 192 717 q 196 712 196 699 q 196 692 196 688 q 195 683 195 679 z m 150 -14 q 128 -14 113 1 q 97 17 97 39 q 97 60 113 75 q 129 91 150 91 q 171 91 187 75 q 203 60 203 39 q 203 16 188 1 q 173 -14 150 -14 z"},"/":{"x_min":0,"x_max":292,"ha":292,"o":"m -12 -93 l 237 722 l 281 722 l 32 -93 z"},"[":{"x_min":0,"x_max":301,"ha":301,"o":"m 168 -181 l 247 -181 q 258 -181 263 -184 q 267 -186 267 -192 q 267 -198 262 -201 q 257 -204 247 -204 l 103 -204 l 103 706 l 247 706 q 257 706 262 703 q 267 700 267 694 q 267 688 263 686 q 258 683 247 683 l 168 683 z"},"6":{"x_min":0,"x_max":551,"ha":551,"o":"m 275 4 q 345 4 388 66 q 431 128 431 231 q 431 330 391 385 q 351 440 280 440 q 207 440 165 384 q 123 328 123 230 q 123 127 165 66 q 207 4 275 4 z m 128 371 q 158 422 204 450 q 251 478 307 478 q 396 478 454 413 q 512 349 512 247 q 512 132 443 57 q 374 -19 271 -19 q 165 -19 102 57 q 40 133 40 263 q 40 383 94 492 q 147 602 253 698 q 292 733 325 757 q 358 780 367 780 q 371 780 373 778 q 375 776 375 773 q 375 766 345 740 q 325 723 313 711 q 233 636 188 553 q 144 471 128 371 z"},"r":{"x_min":0,"x_max":345,"ha":345,"o":"m 106 29 q 108 50 109 74 q 110 98 110 124 l 110 240 q 110 260 108 280 q 107 299 104 316 l 45 313 l 39 313 q 32 313 29 315 q 25 318 25 322 q 25 332 59 337 q 72 339 77 340 q 82 340 114 353 q 147 366 158 366 q 165 366 168 357 q 172 347 172 331 l 174 232 q 201 297 232 330 q 263 363 297 363 q 320 363 333 351 q 347 338 347 318 q 347 298 336 286 q 324 274 306 274 q 291 274 276 286 q 261 299 253 299 q 222 299 198 244 q 175 190 175 106 l 175 29 q 233 26 263 19 q 293 13 293 3 q 293 -2 289 -4 q 286 -6 277 -6 q 274 -6 262 -5 q 208 0 160 0 q 107 0 54 -5 q 43 -6 41 -6 q 32 -6 29 -4 q 25 -2 25 3 q 25 10 41 15 q 57 21 106 29 z"},"2":{"x_min":0,"x_max":551,"ha":551,"o":"m 465 -9 q 408 -1 346 3 q 284 7 217 7 q 165 7 107 4 q 49 1 44 1 q 22 1 16 4 q 10 7 10 16 q 10 27 69 70 q 117 104 148 128 q 280 230 351 325 q 422 420 422 494 q 422 558 381 596 q 340 634 271 634 q 214 634 164 603 q 115 571 75 510 q 68 500 60 483 q 46 457 38 457 q 34 457 32 460 q 30 462 30 467 q 30 479 43 506 q 57 533 77 562 q 127 631 185 663 q 242 695 313 695 q 397 695 447 648 q 497 601 497 521 q 497 425 393 309 q 289 192 58 32 q 218 36 320 48 q 422 60 466 80 q 480 160 486 182 q 493 205 498 205 q 501 205 503 202 q 505 199 505 194 q 505 190 498 134 q 491 77 491 25 q 491 -13 493 -52 q 493 -60 493 -61 q 493 -68 492 -71 q 490 -73 486 -73 q 479 -73 475 -60 q 470 -46 465 -9 z"},"{":{"x_min":0,"x_max":358,"ha":358,"o":"m 225 31 l 225 -73 q 225 -123 237 -147 q 249 -171 277 -180 q 288 -183 306 -184 q 325 -185 325 -192 q 325 -198 317 -201 q 308 -204 289 -204 q 222 -204 192 -164 q 162 -124 162 -33 l 162 34 q 162 166 142 201 q 122 237 67 240 l 67 262 q 122 265 142 301 q 162 337 162 469 l 162 535 q 162 625 192 666 q 222 706 289 706 q 310 706 317 704 q 325 701 325 695 q 325 688 307 687 q 289 687 277 683 q 249 674 237 650 q 225 625 225 575 l 225 471 q 225 358 200 315 q 176 272 110 251 q 176 230 200 187 q 225 144 225 31 z"},"9":{"x_min":0,"x_max":551,"ha":551,"o":"m 277 672 q 207 672 164 610 q 120 548 120 445 q 120 346 160 291 q 200 236 271 236 q 345 236 387 292 q 428 349 428 451 q 428 550 386 611 q 344 672 277 672 z m 423 305 q 393 253 346 226 q 300 198 244 198 q 154 198 97 263 q 39 327 39 429 q 39 543 108 618 q 177 694 280 694 q 388 694 450 617 q 511 541 511 406 q 511 290 457 181 q 403 72 298 -22 q 259 -57 226 -81 q 192 -104 184 -104 q 180 -104 178 -102 q 176 -101 176 -97 q 176 -90 206 -64 q 226 -46 238 -35 q 318 41 363 123 q 407 205 423 305 z"}," ":{"x_min":0,"x_max":275,"ha":275,"o":""},"I":{"x_min":0,"x_max":370,"ha":370,"o":"m 222 221 q 222 156 224 112 q 226 67 229 28 q 285 22 305 16 q 325 11 325 2 q 325 -3 322 -5 q 318 -7 309 -7 q 305 -7 264 -3 q 223 1 185 1 q 147 1 106 -3 q 65 -7 61 -7 q 52 -7 49 -5 q 45 -3 45 2 q 45 11 65 16 q 85 22 141 28 q 145 65 146 109 q 148 154 148 221 l 148 483 q 148 549 146 594 q 145 638 141 675 q 85 681 65 687 q 45 692 45 701 q 45 706 49 708 q 53 711 61 711 q 64 711 106 707 q 147 702 185 702 q 223 702 264 707 q 306 711 309 711 q 317 711 321 708 q 325 706 325 701 q 325 692 305 687 q 285 681 229 675 q 226 636 224 592 q 222 547 222 483 z"},"H":{"x_min":0,"x_max":812,"ha":812,"o":"m 222 360 l 590 360 l 590 483 q 590 555 588 598 q 587 642 583 675 q 527 681 507 687 q 487 692 487 701 q 487 706 491 708 q 495 711 503 711 q 506 711 548 707 q 589 702 627 702 q 665 702 707 707 q 749 711 752 711 q 760 711 764 709 q 767 707 767 701 q 767 692 747 687 q 727 681 671 675 q 667 636 666 592 q 664 547 664 483 l 664 221 q 664 156 666 112 q 667 67 671 28 q 727 22 747 16 q 767 11 767 2 q 767 -3 764 -5 q 761 -7 752 -7 q 748 -7 706 -3 q 665 1 627 1 q 589 1 548 -3 q 507 -7 503 -7 q 494 -7 490 -5 q 487 -3 487 2 q 487 11 507 16 q 527 22 583 28 q 586 66 588 111 q 590 155 590 221 l 590 337 l 222 337 l 222 221 q 222 156 224 112 q 226 67 229 28 q 285 22 305 16 q 325 11 325 2 q 325 -3 322 -5 q 318 -7 309 -7 q 305 -7 264 -3 q 223 1 185 1 q 147 1 106 -3 q 65 -7 61 -7 q 52 -7 49 -5 q 45 -3 45 2 q 45 11 65 16 q 85 22 141 28 q 145 65 146 109 q 148 154 148 221 l 148 483 q 148 549 146 594 q 145 638 141 675 q 85 681 65 687 q 45 692 45 701 q 45 706 49 708 q 53 711 61 711 q 64 711 106 707 q 147 702 185 702 q 223 702 264 707 q 306 711 309 711 q 317 711 321 708 q 325 706 325 701 q 325 692 305 687 q 285 681 229 675 q 226 636 224 592 q 222 547 222 483 z"},"4":{"x_min":0,"x_max":551,"ha":551,"o":"m 296 231 l 302 587 l 64 231 z m 295 175 l 120 175 q 71 175 29 170 q 23 170 22 170 q 15 170 11 172 q 8 174 8 180 q 8 183 10 187 q 11 191 15 198 l 347 695 q 353 703 357 706 q 362 710 366 710 q 372 710 375 707 q 377 703 377 694 q 377 690 373 640 q 369 590 369 544 l 369 231 l 477 231 q 478 239 480 253 q 496 366 508 366 q 512 366 514 363 q 516 360 516 355 q 516 353 510 302 q 504 251 504 203 q 504 180 506 148 q 508 117 508 108 q 508 101 506 98 q 505 96 500 96 q 495 96 492 100 q 490 104 488 117 l 479 175 l 369 175 l 369 29 q 435 25 460 19 q 485 13 485 3 q 485 -2 482 -4 q 479 -6 471 -6 q 468 -6 456 -5 q 391 2 327 2 q 255 2 188 -5 q 176 -6 174 -6 q 166 -6 163 -4 q 159 -2 159 3 q 159 13 190 20 q 220 26 293 30 z"},"~":{"x_min":0,"x_max":833,"ha":833,"o":"m 747 366 l 747 311 q 697 276 650 259 q 604 241 558 241 q 510 241 431 269 q 421 272 417 274 l 409 277 q 323 308 276 308 q 235 308 190 290 q 146 271 87 230 l 87 285 q 139 321 186 338 q 232 356 276 356 q 327 356 409 326 q 414 324 417 323 q 422 321 433 317 q 514 288 558 288 q 600 288 645 307 q 689 325 747 366 z"},"D":{"x_min":0,"x_max":757,"ha":757,"o":"m 229 28 q 258 21 284 18 q 310 14 333 14 q 468 14 547 104 q 625 194 625 350 q 625 512 547 601 q 469 690 328 690 q 302 690 278 686 q 253 683 229 675 q 226 636 224 592 q 222 547 222 482 l 222 221 q 222 156 224 112 q 226 67 229 28 z m 141 28 q 145 65 146 109 q 148 154 148 221 l 148 482 q 148 549 146 594 q 145 638 141 675 q 85 681 65 687 q 45 692 45 701 q 45 706 49 708 q 53 711 61 711 q 64 711 105 707 q 146 702 185 702 q 216 702 272 707 q 329 712 355 712 q 519 712 615 616 q 711 520 711 356 q 711 193 611 93 q 511 -7 347 -7 q 320 -7 266 -3 q 212 1 185 1 q 147 1 106 -3 q 64 -7 61 -7 q 52 -7 49 -5 q 45 -3 45 2 q 45 11 65 16 q 85 22 141 28 z"},"^":{"x_min":0,"x_max":1000,"ha":1000,"o":"m 459 714 l 540 714 l 797 438 l 754 438 l 499 658 l 243 438 l 201 438 z"},"0":{"x_min":0,"x_max":551,"ha":551,"o":"m 511 375 q 511 192 441 87 q 371 -19 252 -19 q 151 -19 97 64 q 42 148 42 302 q 42 485 112 590 q 182 695 301 695 q 401 695 456 611 q 511 527 511 375 z m 272 6 q 354 6 393 89 q 431 172 431 352 q 431 513 394 593 q 356 672 281 672 q 200 672 161 591 q 122 510 122 343 q 122 168 158 87 q 194 6 272 6 z"},"F":{"x_min":0,"x_max":662,"ha":662,"o":"m 291 704 q 356 704 426 709 q 496 713 570 723 l 580 757 q 582 763 585 767 q 588 770 592 770 q 596 770 598 767 q 599 765 599 757 q 599 757 595 724 q 591 692 591 660 q 591 619 594 576 q 595 566 595 565 q 595 560 593 557 q 590 554 587 554 q 582 554 579 560 q 576 565 573 585 l 564 650 q 519 665 456 673 q 393 681 322 681 q 303 681 279 680 q 256 678 229 675 q 226 636 224 592 q 222 547 222 483 l 222 372 l 333 372 q 393 372 444 377 q 494 383 535 394 l 541 421 q 542 428 544 438 q 552 475 562 475 q 565 475 566 472 q 568 469 568 463 q 568 460 566 446 q 559 397 559 354 q 559 321 562 285 q 565 250 565 247 q 565 242 563 238 q 561 235 557 235 q 547 235 542 279 q 541 286 540 290 l 535 325 q 494 336 443 342 q 392 348 333 348 l 222 348 l 222 221 q 222 156 224 112 q 226 67 229 28 q 295 23 320 17 q 344 11 344 2 q 344 -3 341 -5 q 337 -7 328 -7 q 326 -7 316 -6 q 253 0 185 0 q 132 0 76 -6 q 64 -7 61 -7 q 52 -7 49 -5 q 45 -3 45 2 q 45 11 65 16 q 85 22 141 28 q 145 65 146 109 q 148 154 148 221 l 148 483 q 148 549 146 594 q 145 638 141 675 q 85 681 65 687 q 45 692 45 701 q 45 706 49 708 q 53 711 61 711 q 64 711 76 710 q 132 704 185 704 z"},"`":{"x_min":0,"x_max":500,"ha":500,"o":"m 195 564 l 336 418 l 303 418 l 142 518 q 127 528 119 538 q 112 548 112 558 q 112 573 122 583 q 132 593 147 593 q 157 593 167 587 q 178 581 195 564 z"},"k":{"x_min":0,"x_max":493,"ha":493,"o":"m 169 166 l 247 190 l 266 166 q 328 186 360 212 q 392 239 392 271 q 392 296 373 311 q 354 325 321 325 q 284 325 242 307 q 200 289 195 289 q 192 289 189 291 q 187 293 187 297 q 187 303 195 309 q 203 315 227 327 q 264 345 297 354 q 331 363 357 363 q 405 363 432 342 q 459 322 459 285 q 459 247 418 214 q 377 182 284 148 q 342 83 375 53 q 409 23 425 23 q 435 23 449 36 q 462 49 467 49 q 471 49 472 47 q 474 45 474 41 q 474 27 451 7 q 428 -14 406 -14 q 367 -14 311 28 q 255 71 169 166 z m 157 124 q 157 104 158 80 q 160 57 162 29 q 209 21 225 16 q 241 10 241 3 q 241 -2 238 -4 q 234 -6 225 -6 q 223 -6 189 -3 q 156 0 125 0 q 94 0 61 -3 q 27 -6 25 -6 q 16 -6 12 -4 q 9 -2 9 3 q 9 10 25 16 q 41 21 88 29 q 90 58 92 81 q 93 104 93 124 l 90 741 q 90 770 85 779 q 81 789 70 789 q 61 789 45 780 q 30 771 23 771 q 20 771 17 772 q 14 774 14 776 q 14 785 22 794 q 31 803 51 815 q 81 833 105 843 q 130 853 144 853 q 153 853 157 844 q 161 836 161 818 z"},"u":{"x_min":0,"x_max":521,"ha":521,"o":"m 159 130 q 159 77 177 53 q 194 30 233 30 q 256 30 287 40 q 318 50 357 71 l 357 240 q 357 260 355 280 q 354 299 351 316 l 294 313 l 288 313 q 281 313 278 315 q 275 317 275 322 q 275 332 301 336 q 316 338 325 340 q 353 346 381 358 q 409 369 411 369 q 416 369 419 364 q 422 358 422 347 l 422 100 q 422 75 423 59 q 425 42 428 29 l 481 23 q 482 23 485 22 q 503 20 503 12 q 503 5 495 2 q 488 -1 470 -1 l 455 -1 q 421 -1 382 -6 q 372 -7 369 -7 q 363 -7 360 -1 q 357 4 357 16 l 357 49 q 290 15 250 0 q 211 -14 188 -14 q 136 -14 115 14 q 94 43 94 118 l 94 240 q 94 260 93 280 q 91 299 88 316 l 31 313 l 25 313 q 18 313 15 315 q 12 317 12 322 q 12 331 42 336 q 56 338 62 340 q 70 340 107 354 q 144 369 148 369 q 153 369 156 363 q 159 357 159 347 z"},"]":{"x_min":0,"x_max":301,"ha":301,"o":"m 132 683 l 53 683 q 42 683 37 686 q 33 688 33 694 q 33 700 38 703 q 43 706 53 706 l 197 706 l 197 -204 l 53 -204 q 43 -204 38 -201 q 33 -198 33 -192 q 33 -186 37 -184 q 42 -181 53 -181 l 132 -181 z"},"U":{"x_min":0,"x_max":794,"ha":794,"o":"m 139 675 q 83 681 62 687 q 42 692 42 701 q 42 706 46 708 q 50 711 58 711 q 61 711 103 707 q 145 702 183 702 q 221 702 262 707 q 304 711 307 711 q 315 711 319 708 q 323 706 323 701 q 323 692 303 687 q 283 681 227 675 l 213 290 q 213 283 212 271 q 212 258 212 252 q 212 117 256 60 q 300 4 405 4 q 479 4 531 33 q 582 62 607 117 q 622 150 628 199 q 635 248 635 332 l 635 434 q 635 499 630 559 q 625 620 616 675 q 557 681 535 687 q 514 692 514 701 q 514 706 518 708 q 521 711 530 711 q 532 711 568 708 q 604 704 638 704 q 672 704 708 708 q 745 711 746 711 q 754 711 758 709 q 761 707 761 701 q 761 694 747 689 q 733 684 680 675 q 673 631 665 458 q 665 441 664 432 l 659 319 q 659 311 658 293 q 652 155 625 101 q 595 42 536 12 q 476 -19 392 -19 q 314 -19 257 8 q 200 36 171 87 q 154 118 146 162 q 139 207 139 313 z"},"o":{"x_min":0,"x_max":484,"ha":484,"o":"m 240 8 q 303 8 339 52 q 375 95 375 172 q 375 252 342 296 q 309 341 250 341 q 186 341 146 297 q 107 253 107 180 q 107 102 143 55 q 180 8 240 8 z m 447 193 q 447 104 381 44 q 315 -16 214 -16 q 132 -16 85 28 q 37 72 37 148 q 37 243 104 303 q 171 364 277 364 q 356 364 402 318 q 447 272 447 193 z"},"N":{"x_min":0,"x_max":801,"ha":801,"o":"m 173 593 l 173 284 q 173 211 177 146 q 182 81 191 28 q 254 23 277 17 q 301 11 301 2 q 301 -3 297 -5 q 293 -7 285 -7 q 282 -7 242 -3 q 203 1 166 1 q 139 1 103 -3 q 68 -7 60 -7 q 52 -7 48 -5 q 45 -3 45 2 q 45 9 60 14 q 74 20 128 28 q 138 67 143 127 q 148 188 148 261 l 148 622 q 119 662 84 681 q 50 700 50 701 q 50 706 54 708 q 58 711 66 711 q 67 711 73 710 q 110 705 151 705 q 156 705 167 706 q 178 706 184 706 l 625 129 l 625 415 q 625 499 621 564 q 617 630 609 675 q 553 680 530 686 q 506 692 506 701 q 506 706 510 708 q 513 711 521 711 q 524 711 563 707 q 603 702 639 702 q 667 702 702 707 q 737 711 744 711 q 751 711 755 708 q 759 706 759 701 q 759 692 740 687 q 721 681 669 675 q 660 622 655 542 q 651 462 651 347 l 651 -10 q 651 -16 650 -18 q 648 -19 646 -19 q 642 -19 637 -15 q 631 -10 625 -2 z"},"+":{"x_min":0,"x_max":833,"ha":833,"o":"m 393 596 l 441 596 l 441 322 l 709 322 l 709 274 l 441 274 l 441 0 l 393 0 l 393 274 l 124 274 l 124 322 l 393 322 z"},"G":{"x_min":0,"x_max":773,"ha":773,"o":"m 604 77 l 604 323 q 543 328 520 334 q 497 339 497 348 q 497 353 501 355 q 505 358 513 358 q 515 358 552 354 q 589 351 623 351 q 651 351 686 354 q 720 358 725 358 q 733 358 737 355 q 741 353 741 348 q 741 339 701 330 q 687 327 679 325 l 679 136 q 679 114 685 90 q 687 83 687 81 q 687 73 669 70 q 659 68 654 67 q 637 62 601 46 q 589 41 583 38 q 507 4 462 -8 q 418 -19 376 -19 q 313 -19 257 1 q 201 22 158 60 q 104 108 74 179 q 44 250 44 330 q 44 411 75 485 q 105 558 163 616 q 214 667 282 695 q 350 722 425 722 q 472 722 524 709 q 576 695 637 667 q 640 678 644 697 q 659 764 671 764 q 675 764 677 761 q 678 758 678 750 q 678 748 671 686 q 663 624 663 564 q 663 517 667 469 q 668 460 668 458 q 668 454 666 451 q 663 448 659 448 q 651 448 646 471 q 642 494 636 574 q 580 631 519 660 q 458 689 395 689 q 269 689 191 607 q 113 526 113 394 q 113 329 135 264 q 157 199 199 142 q 240 86 303 55 q 365 23 434 23 q 474 23 516 36 q 558 50 604 77 z"},"q":{"x_min":0,"x_max":463,"ha":463,"o":"m 316 274 q 293 308 266 324 q 239 341 209 341 q 163 341 136 298 q 109 254 109 178 q 109 102 136 61 q 163 20 212 20 q 239 20 264 34 q 289 48 316 79 z m 380 -82 q 380 -116 381 -147 q 383 -178 386 -206 q 432 -213 448 -218 q 464 -224 464 -231 q 464 -236 460 -238 q 457 -240 448 -240 q 445 -240 433 -239 q 382 -233 335 -233 q 279 -233 224 -239 q 212 -240 210 -240 q 202 -240 198 -238 q 193 -235 193 -230 q 193 -224 216 -218 q 240 -213 309 -205 q 312 -176 313 -146 q 315 -115 315 -82 l 315 50 q 278 16 244 0 q 210 -15 172 -15 q 111 -15 73 31 q 36 77 36 153 q 36 249 81 305 q 126 362 202 362 q 235 362 266 346 q 296 331 321 300 q 332 336 360 357 q 387 377 426 377 q 437 377 444 374 q 450 370 450 365 q 450 358 434 353 q 422 349 415 345 q 396 334 388 311 q 380 289 380 228 z"},"d":{"x_min":0,"x_max":475,"ha":475,"o":"m 317 282 q 288 313 262 327 q 236 341 210 341 q 164 341 137 298 q 110 255 110 180 q 110 102 136 61 q 163 20 213 20 q 242 20 267 35 q 292 51 317 83 z m 314 741 q 314 771 310 780 q 306 789 295 789 q 286 789 270 780 q 253 771 247 771 q 244 771 241 772 q 239 773 239 776 q 239 785 247 794 q 256 803 276 815 q 308 833 332 843 q 356 853 371 853 q 380 853 385 844 q 389 835 389 818 l 381 91 q 381 57 385 50 q 389 42 401 42 q 418 42 437 60 q 455 77 459 77 q 462 77 464 75 q 466 73 466 70 q 466 50 423 18 q 380 -14 347 -14 q 331 -14 323 -6 q 316 1 316 19 l 317 51 q 279 16 245 1 q 211 -14 173 -14 q 112 -14 74 32 q 36 78 36 154 q 36 249 82 306 q 127 363 203 363 q 229 363 258 352 q 286 342 317 321 z"},"1":{"x_min":0,"x_max":551,"ha":551,"o":"m 246 627 l 128 619 q 124 619 119 619 q 114 618 112 618 q 105 618 102 620 q 98 623 98 627 q 98 635 151 643 q 185 648 202 652 q 233 659 276 677 q 319 695 321 695 q 324 695 327 691 q 329 688 329 683 q 329 680 324 635 q 320 591 320 550 l 320 221 q 320 157 322 112 q 323 67 327 28 q 400 24 428 18 q 456 12 456 2 q 456 -3 452 -5 q 449 -7 440 -7 q 438 -7 425 -6 q 354 1 283 1 q 205 1 132 -6 q 120 -7 117 -7 q 108 -7 104 -5 q 101 -3 101 2 q 101 13 133 19 q 165 25 239 28 q 243 65 244 110 q 246 154 246 221 z"},"5":{"x_min":0,"x_max":551,"ha":551,"o":"m 175 599 l 118 422 q 149 435 184 441 q 218 447 259 447 q 365 447 431 391 q 496 336 496 246 q 496 209 485 174 q 474 138 454 109 q 411 45 350 13 q 290 -19 215 -19 q 137 -19 87 26 q 37 70 37 139 q 37 173 48 200 q 59 226 71 226 q 76 226 78 221 q 81 217 81 209 q 81 206 81 201 q 80 197 80 196 q 80 128 136 77 q 191 26 269 26 q 344 26 394 74 q 444 122 444 194 q 444 272 390 319 q 336 365 246 365 q 173 365 94 325 q 78 316 74 316 q 71 316 68 319 q 65 323 65 327 q 65 330 67 339 q 69 348 73 358 l 175 675 l 392 675 q 417 675 433 679 q 450 684 461 693 q 468 699 476 713 q 483 727 489 727 q 494 727 497 724 q 500 722 500 718 q 500 710 489 684 q 478 657 462 635 q 448 614 433 607 q 418 599 378 599 z"}}}
